<svg width="70" height="70" viewBox="0 0 70 70" fill="none" xmlns="http://www.w3.org/2000/svg">
<g clip-path="url(#clip0_868_47)">
<path d="M35 6.30875C44.345 6.30875 45.4533 6.34375 49.1458 6.51292C58.6308 6.94458 63.0612 11.445 63.4929 20.86C63.6621 24.5496 63.6942 25.6579 63.6942 35.0029C63.6942 44.3508 63.6592 45.4563 63.4929 49.1458C63.0583 58.5521 58.6396 63.0612 49.1458 63.4929C45.4533 63.6621 44.3508 63.6971 35 63.6971C25.655 63.6971 24.5467 63.6621 20.8571 63.4929C11.3488 63.0583 6.94167 58.5375 6.51 49.1429C6.34083 45.4533 6.30583 44.3479 6.30583 35C6.30583 25.655 6.34375 24.5496 6.51 20.8571C6.94458 11.445 11.3633 6.94167 20.8571 6.51C24.5496 6.34375 25.655 6.30875 35 6.30875ZM35 0C25.4946 0 24.3046 0.0408333 20.5713 0.21C7.86042 0.793333 0.79625 7.84583 0.212917 20.5683C0.0408333 24.3046 0 25.4946 0 35C0 44.5054 0.0408333 45.6983 0.21 49.4317C0.793333 62.1425 7.84583 69.2067 20.5683 69.79C24.3046 69.9592 25.4946 70 35 70C44.5054 70 45.6983 69.9592 49.4317 69.79C62.1308 69.2067 69.2125 62.1542 69.7871 49.4317C69.9592 45.6983 70 44.5054 70 35C70 25.4946 69.9592 24.3046 69.79 20.5713C69.2183 7.87208 62.1571 0.79625 49.4346 0.212917C45.6983 0.0408333 44.5054 0 35 0ZM35 17.0275C25.0746 17.0275 17.0275 25.0746 17.0275 35C17.0275 44.9254 25.0746 52.9754 35 52.9754C44.9254 52.9754 52.9725 44.9283 52.9725 35C52.9725 25.0746 44.9254 17.0275 35 17.0275ZM35 46.6667C28.5571 46.6667 23.3333 41.4458 23.3333 35C23.3333 28.5571 28.5571 23.3333 35 23.3333C41.4429 23.3333 46.6667 28.5571 46.6667 35C46.6667 41.4458 41.4429 46.6667 35 46.6667ZM53.6842 12.1188C51.3625 12.1188 49.4813 14 49.4813 16.3188C49.4813 18.6375 51.3625 20.5187 53.6842 20.5187C56.0029 20.5187 57.8812 18.6375 57.8812 16.3188C57.8812 14 56.0029 12.1188 53.6842 12.1188Z" fill="black"/>
</g>
<defs>
<clipPath id="clip0_868_47">
<rect width="70" height="70" fill="white"/>
</clipPath>
</defs>
</svg>
