<svg width="70" height="70" viewBox="0 0 70 70" fill="none" xmlns="http://www.w3.org/2000/svg">
<path d="M23.2934 12C10.428 12 0 22.3731 0 35.1709C0 47.9686 10.428 58.3417 23.2934 58.3417C36.1587 58.3417 46.5867 47.9686 46.5867 35.1709C46.5867 22.3731 36.1587 12 23.2934 12ZM23.2934 42.1221C19.4341 42.1221 16.3053 39.0098 16.3053 35.1709C16.3053 31.3319 19.4341 28.2196 23.2934 28.2196C27.1526 28.2196 30.2814 31.3319 30.2814 35.1709C30.287 39.0043 27.1656 42.1166 23.312 42.1221C23.3064 42.1221 23.2989 42.1221 23.2934 42.1221Z" fill="#181818"/>
<path d="M49.4751 29.3781C55.3935 31.0724 62.3796 29.3781 62.3796 29.3781C60.3522 38.1831 53.9232 43.6977 44.6524 44.3688C40.9777 52.853 32.579 58.3473 23.2934 58.3417L30.2814 36.2478C37.465 13.5385 41.1473 12 58.1831 12H69.8801C67.9234 20.5732 61.1795 27.1222 49.4751 29.3781Z" fill="black"/>
</svg>
