<svg width="70" height="70" viewBox="0 0 70 70" fill="none" xmlns="http://www.w3.org/2000/svg">
<path d="M63 29.0656C57.3969 29.0791 51.9313 27.3088 47.3752 24.0047V47.0487C47.3736 51.3167 46.086 55.4825 43.6845 58.989C41.2829 62.4956 37.882 65.1758 33.9363 66.6713C29.9907 68.1667 25.6884 68.4062 21.6048 67.3576C17.5212 66.3089 13.8509 64.0223 11.0848 60.8033C8.31856 57.5843 6.58829 53.5865 6.12532 49.3443C5.66236 45.1022 6.48875 40.8179 8.49401 37.0645C10.4993 33.311 13.5878 30.2672 17.3466 28.3401C21.1055 26.413 25.3554 25.6944 29.5282 26.2805V37.8708C27.6188 37.2623 25.5683 37.2806 23.6697 37.9232C21.7711 38.5657 20.1215 39.7996 18.9564 41.4487C17.7913 43.0977 17.1702 45.0776 17.182 47.1056C17.1938 49.1335 17.8378 51.1058 19.022 52.7409C20.2062 54.3759 21.8701 55.59 23.776 56.2099C25.682 56.8297 27.7325 56.8236 29.6348 56.1923C31.537 55.5611 33.1938 54.337 34.3684 52.6949C35.5431 51.0528 36.1756 49.0767 36.1755 47.0487V2H47.3752C47.3674 2.9582 47.4466 3.91509 47.6119 4.85858C48.0011 6.96477 48.8103 8.96838 49.99 10.7469C51.1697 12.5254 52.6951 14.0413 54.473 15.2021C57.0023 16.8964 59.9678 17.7995 63 17.7989V29.0656Z" fill="black"/>
</svg>
