<svg width="70" height="70" viewBox="0 0 70 70" fill="none" xmlns="http://www.w3.org/2000/svg">
<g clip-path="url(#clip0_868_43)">
<path d="M70 13.2912C67.4246 14.4346 64.6567 15.2046 61.7517 15.5516C64.7179 13.7754 66.9958 10.9608 68.0663 7.60664C65.2925 9.25164 62.2183 10.4475 58.9458 11.0921C56.3296 8.30081 52.5933 6.55664 48.4633 6.55664C39.1912 6.55664 32.3779 15.2075 34.4721 24.1879C22.54 23.59 11.9583 17.8733 4.87375 9.18456C1.11125 15.6391 2.9225 24.0829 9.31583 28.3587C6.965 28.2829 4.74833 27.6383 2.81458 26.5621C2.65708 33.215 7.42583 39.4391 14.3325 40.8246C12.3113 41.3729 10.0975 41.5012 7.84583 41.0696C9.67167 46.7746 14.9742 50.925 21.2625 51.0416C15.225 55.7754 7.61833 57.89 0 56.9916C6.35542 61.0662 13.9067 63.4433 22.015 63.4433C48.6792 63.4433 63.7438 40.9237 62.8337 20.7258C65.6396 18.6987 68.075 16.17 70 13.2912Z" fill="black"/>
</g>
<defs>
<clipPath id="clip0_868_43">
<rect width="70" height="70" fill="white"/>
</clipPath>
</defs>
</svg>
